<?xml version="1.0" encoding="UTF-8" standalone="no"?>
<!DOCTYPE svg PUBLIC "-//W3C//DTD SVG 1.1//EN"
 "http://www.w3.org/Graphics/SVG/1.1/DTD/svg11.dtd">
<!-- Generated by graphviz version 2.38.0 (20140413.2041)
 -->
<!-- Title: httpd:2.4 Pages: 1 -->
<svg width="1012pt" height="218pt"
 viewBox="0.00 0.00 1011.82 218.00" xmlns="http://www.w3.org/2000/svg" xmlns:xlink="http://www.w3.org/1999/xlink">
<g id="graph0" class="graph" transform="scale(1 1) rotate(0) translate(4 214)">
<title>httpd:2.4</title>
<polygon fill="white" stroke="none" points="-4,4 -4,-214 1007.82,-214 1007.82,4 -4,4"/>
<!-- 1 -->
<g id="node1" class="node"><title>1</title>
<ellipse fill="none" stroke="black" cx="180.037" cy="-105" rx="102.882" ry="18"/>
<text text-anchor="middle" x="180.037" y="-101.3" font-family="Times,serif" font-size="14.00">BuildConfig|default/tester</text>
</g>
<!-- 7 -->
<g id="node5" class="node"><title>7</title>
<ellipse fill="none" stroke="black" cx="141.037" cy="-18" rx="141.075" ry="18"/>
<text text-anchor="middle" x="141.037" y="-14.3" font-family="Times,serif" font-size="14.00">ImageStreamTag|default/tester:latest</text>
</g>
<!-- 1&#45;&gt;7 -->
<g id="edge1" class="edge"><title>1&#45;&gt;7</title>
<path fill="none" stroke="black" d="M172.145,-86.799C166.7,-74.9322 159.357,-58.9279 153.173,-45.4488"/>
<polygon fill="black" stroke="black" points="156.269,-43.8048 148.918,-36.1754 149.907,-46.724 156.269,-43.8048"/>
<text text-anchor="middle" x="197.037" y="-57.8" font-family="Times,serif" font-size="14.00">BuildOutput</text>
</g>
<!-- 3 -->
<g id="node2" class="node"><title>3</title>
<ellipse fill="none" stroke="black" cx="479.037" cy="-105" rx="140.275" ry="18"/>
<text text-anchor="middle" x="479.037" y="-101.3" font-family="Times,serif" font-size="14.00">BuildConfig|myproject/random&#45;beer</text>
</g>
<!-- 11 -->
<g id="node6" class="node"><title>11</title>
<ellipse fill="none" stroke="black" cx="479.037" cy="-18" rx="178.969" ry="18"/>
<text text-anchor="middle" x="479.037" y="-14.3" font-family="Times,serif" font-size="14.00">ImageStreamTag|myproject/random&#45;beer:latest</text>
</g>
<!-- 3&#45;&gt;11 -->
<g id="edge2" class="edge"><title>3&#45;&gt;11</title>
<path fill="none" stroke="black" d="M479.037,-86.799C479.037,-75.1626 479.037,-59.5479 479.037,-46.2368"/>
<polygon fill="black" stroke="black" points="482.538,-46.1754 479.037,-36.1754 475.538,-46.1755 482.538,-46.1754"/>
<text text-anchor="middle" x="513.037" y="-57.8" font-family="Times,serif" font-size="14.00">BuildOutput</text>
</g>
<!-- 4 -->
<g id="node3" class="node"><title>4</title>
<ellipse fill="none" stroke="black" cx="806.037" cy="-105" rx="125.378" ry="18"/>
<text text-anchor="middle" x="806.037" y="-101.3" font-family="Times,serif" font-size="14.00">BuildConfig|myproject/web&#45;app</text>
</g>
<!-- 12 -->
<g id="node7" class="node"><title>12</title>
<ellipse fill="none" stroke="black" cx="840.037" cy="-18" rx="163.571" ry="18"/>
<text text-anchor="middle" x="840.037" y="-14.3" font-family="Times,serif" font-size="14.00">ImageStreamTag|myproject/web&#45;app:latest</text>
</g>
<!-- 4&#45;&gt;12 -->
<g id="edge3" class="edge"><title>4&#45;&gt;12</title>
<path fill="none" stroke="black" d="M812.918,-86.799C817.619,-75.0474 823.942,-59.2383 829.301,-45.8421"/>
<polygon fill="black" stroke="black" points="832.703,-46.7601 833.167,-36.1754 826.204,-44.1603 832.703,-46.7601"/>
<text text-anchor="middle" x="860.037" y="-57.8" font-family="Times,serif" font-size="14.00">BuildOutput</text>
</g>
<!-- 6 -->
<g id="node4" class="node"><title>6</title>
<ellipse fill="none" stroke="black" cx="479.037" cy="-192" rx="141.075" ry="18"/>
<text text-anchor="middle" x="479.037" y="-188.3" font-family="Times,serif" font-size="14.00">ImageStreamTag|openshift/httpd:2.4</text>
</g>
<!-- 6&#45;&gt;1 -->
<g id="edge4" class="edge"><title>6&#45;&gt;1</title>
<path fill="none" stroke="black" d="M374.18,-179.913C341.243,-174.655 305.117,-167.017 273.037,-156 252.704,-149.017 231.482,-137.938 214.453,-127.982"/>
<polygon fill="black" stroke="black" points="215.835,-124.73 205.457,-122.599 212.241,-130.737 215.835,-124.73"/>
<text text-anchor="middle" x="374.037" y="-144.8" font-family="Times,serif" font-size="14.00">BuildInputImage,BuildTriggerImage</text>
</g>
<!-- 6&#45;&gt;3 -->
<g id="edge5" class="edge"><title>6&#45;&gt;3</title>
<path fill="none" stroke="black" d="M479.037,-173.799C479.037,-162.163 479.037,-146.548 479.037,-133.237"/>
<polygon fill="black" stroke="black" points="482.538,-133.175 479.037,-123.175 475.538,-133.175 482.538,-133.175"/>
<text text-anchor="middle" x="580.037" y="-144.8" font-family="Times,serif" font-size="14.00">BuildInputImage,BuildTriggerImage</text>
</g>
<!-- 6&#45;&gt;4 -->
<g id="edge6" class="edge"><title>6&#45;&gt;4</title>
<path fill="none" stroke="black" d="M576.718,-178.98C611.31,-173.524 650.262,-166.003 685.037,-156 711.51,-148.386 740.034,-136.776 762.736,-126.659"/>
<polygon fill="black" stroke="black" points="764.416,-129.741 772.086,-122.431 761.532,-123.362 764.416,-129.741"/>
<text text-anchor="middle" x="827.037" y="-144.8" font-family="Times,serif" font-size="14.00">BuildInputImage,BuildTriggerImage</text>
</g>
</g>
</svg>
